<svg width="24" height="25" viewBox="0 0 24 25" fill="none" xmlns="http://www.w3.org/2000/svg">
<g clip-path="url(#clip0_21146_12872)">
<path d="M12.0796 7.57779L13.1673 13.105L16.6884 15.4702L16.2604 13.2906C16.1714 12.8371 16.467 12.397 16.9224 12.3052C17.3759 12.2161 17.816 12.5118 17.9078 12.9671L18.7247 17.1393C18.8137 17.5928 18.518 18.033 18.0645 18.122L13.8905 18.9416C13.437 19.0307 12.9968 18.735 12.9078 18.2815C12.8188 17.828 13.1144 17.3879 13.5679 17.2988L15.7614 16.8681L11.9414 14.3021C11.7559 14.1775 11.6271 13.9865 11.5863 13.7663L10.5032 8.23818L7.01537 5.89526C6.63061 5.63679 6.5307 5.11574 6.7873 4.73374C7.04391 4.35174 7.56682 4.24906 7.94882 4.50567L11.7245 7.04197C11.91 7.16655 12.0369 7.3603 12.0796 7.57779Z" fill="#F2686A"/>
</g>
<defs>
<clipPath id="clip0_21146_12872">
<rect width="17.0735" height="17.0735" fill="white" transform="translate(14.1802 0.65332) rotate(56.109)"/>
</clipPath>
</defs>
</svg>
