<svg width="70" height="71" viewBox="0 0 70 71" fill="none" xmlns="http://www.w3.org/2000/svg">
<rect y="0.40625" width="70" height="70" rx="35" fill="#090A0B"/>
<rect x="1.75001" y="2.15626" width="66.5" height="66.5" rx="33.25" stroke="#3A3A44" stroke-opacity="0.4" stroke-width="3.50002"/>
<g clip-path="url(#clip0_20889_322263)">
<path d="M25.8481 34.3848H22.598C22.1703 34.3848 21.7427 34.7269 21.7427 35.2401V46.1024C21.7427 46.5301 22.0848 46.9578 22.598 46.9578H25.8481C26.2758 46.9578 26.7034 46.6156 26.7034 46.1024V35.1545C26.7034 34.7269 26.2758 34.3848 25.8481 34.3848Z" fill="url(#paint0_linear_20889_322263)"/>
<path d="M33.033 30.877H29.7828C29.3551 30.877 28.9275 31.2191 28.9275 31.7323V46.1014C28.9275 46.529 29.2696 46.9567 29.7828 46.9567H33.033C33.4606 46.9567 33.8883 46.6146 33.8883 46.1014V31.7323C33.8883 31.2191 33.4606 30.877 33.033 30.877Z" fill="url(#paint1_linear_20889_322263)"/>
<path d="M40.2178 26.3418H36.9676C36.54 26.3418 36.1123 26.6839 36.1123 27.1971V46.0994C36.1123 46.527 36.4544 46.9547 36.9676 46.9547H40.2178C40.6454 46.9547 41.0731 46.6125 41.0731 46.0994V27.1971C41.0731 26.6839 40.731 26.3418 40.2178 26.3418Z" fill="url(#paint2_linear_20889_322263)"/>
<path d="M47.4026 20.3574H44.1524C43.7248 20.3574 43.2971 20.6995 43.2971 21.2127V46.1021C43.2971 46.5298 43.6392 46.9574 44.1524 46.9574H47.4026C47.8302 46.9574 48.2579 46.6153 48.2579 46.1021V21.2127C48.2579 20.6995 47.9158 20.3574 47.4026 20.3574Z" fill="url(#paint3_linear_20889_322263)"/>
</g>
<defs>
<linearGradient id="paint0_linear_20889_322263" x1="24.2231" y1="34.3848" x2="21.9325" y2="49.5899" gradientUnits="userSpaceOnUse">
<stop stop-color="white"/>
<stop offset="1" stop-color="#999999"/>
</linearGradient>
<linearGradient id="paint1_linear_20889_322263" x1="31.4079" y1="30.877" x2="27.7136" y2="50.0525" gradientUnits="userSpaceOnUse">
<stop stop-color="white"/>
<stop offset="1" stop-color="#999999"/>
</linearGradient>
<linearGradient id="paint2_linear_20889_322263" x1="38.5927" y1="26.3418" x2="32.6584" y2="50.37" gradientUnits="userSpaceOnUse">
<stop stop-color="white"/>
<stop offset="1" stop-color="#999999"/>
</linearGradient>
<linearGradient id="paint3_linear_20889_322263" x1="45.7775" y1="20.3574" x2="36.2593" y2="50.2226" gradientUnits="userSpaceOnUse">
<stop stop-color="white"/>
<stop offset="1" stop-color="#999999"/>
</linearGradient>
<clipPath id="clip0_20889_322263">
<rect width="28" height="28" fill="white" transform="translate(21.0002 19.6562)"/>
</clipPath>
</defs>
</svg>
