<svg width="323" height="99" viewBox="0 0 323 99" fill="none" xmlns="http://www.w3.org/2000/svg">
<g clip-path="url(#clip0_20889_321738)">
<rect x="17.7263" y="12.2773" width="73.5217" height="73.5217" rx="11.8392" fill="url(#paint0_linear_20889_321738)"/>
<path d="M46.1487 67.7207C44.6509 65.0774 42.634 62.9103 40.2065 60.9609C42.9686 61.3529 46.3496 65.1995 46.1487 67.7207ZM61.9601 67.7806C63.4456 65.1135 65.4777 62.94 67.7875 61.0177C64.9729 61.5545 61.9098 65.1026 61.9601 67.7806ZM68.2647 36.7814C67.202 34.988 66.5057 33.2391 66.0135 31.1836C65.1558 32.9732 66.6499 36.3023 68.2647 36.7814ZM43.0573 31.3571C42.3663 33.0882 41.6275 34.9392 40.9121 36.7314C42.6624 35.8782 43.6666 33.0192 43.0573 31.3571ZM74.257 48.2189C73.6562 58.5491 60.4814 60.1725 60.833 69.575C59.5019 68.3632 59.1 66.6322 59.5993 64.886C59.5701 64.8754 59.5408 64.8648 59.5116 64.8541C58.5136 66.8852 57.9562 69.3156 58.2666 71.6147C58.3834 72.169 58.0825 71.9486 57.838 71.6774L57.8449 71.6861C57.3135 70.6611 56.8875 69.4585 56.8568 68.278C56.8147 68.2769 56.7723 68.2759 56.7301 68.2747C55.8817 70.9529 55.6374 73.899 54.4355 76.4166C53.779 74.0659 53.005 71.6906 52.5746 69.3001C52.4748 68.9377 52.1815 68.0894 52.1552 68.0927C52.1285 68.0963 52.0709 68.9217 52.0483 69.2659C52.1338 70.484 51.4273 71.3372 50.8572 72.1784C50.6044 70.339 50.6745 68.3752 50.2358 66.5761L50.2413 66.5912C50.153 66.4762 49.7579 65.6845 49.6581 65.4459C49.771 66.9807 49.3387 68.4551 48.2384 69.6433C48.5774 62.4756 40.8738 59.8884 37.3635 54.8437C33.6244 49.5655 33.0598 40.6608 38.6979 36.506C36.6254 39.8024 37.4232 43.6876 39.3028 46.848C39.3901 46.9555 39.7184 47.3487 39.7323 47.0047C38.7477 44.7231 39.0885 42.1962 40.3954 40.1129C43.7193 36.9143 44.7373 32.5599 45.413 27.9344C48.0216 31.9161 46.7757 36.9261 44.5696 40.6933C44.5724 40.6895 44.5742 40.6855 44.577 40.682C44.5175 40.769 44.4979 40.8847 44.3984 40.939C50.615 37.4658 52.4331 28.28 54.4963 21.6602C56.2748 27.6519 57.7403 33.7326 61.7326 38.6872C62.6525 39.561 63.6624 40.3168 64.6111 41.096C62.4847 37.2053 61.1844 32.3312 63.3539 28.069C63.447 28.0819 63.5403 28.0949 63.6334 28.1081C64.3542 32.1011 64.9475 36.6392 68.0896 39.4226C69.7084 41.4661 70.157 44.1302 69.4353 46.6509C69.3623 46.7876 69.415 46.9409 69.3777 47.0835C69.4789 47.1648 69.5765 46.8673 69.6775 46.9074C71.6757 43.7534 72.2191 39.8165 70.3761 36.4706C73.9159 39.1654 75.0273 43.9609 74.2574 48.2187L74.257 48.2189ZM58.3488 54.3868C58.2385 54.5089 58.2149 54.7133 58.1509 54.8793C61.0503 54.8863 64.347 53.295 65.719 50.6045C66.2096 49.4955 66.8995 47.9947 66.4402 46.7937C63.318 48.8498 60.8031 51.5659 58.3486 54.3865L58.3488 54.3868ZM48.7385 42.4876C48.773 42.5336 48.8076 42.5794 48.8419 42.6253C51.4637 41.1735 53.0663 38.7212 54.4966 36.1583C55.9646 38.6698 57.4704 41.132 60.1074 42.5544C60.1381 42.5091 60.169 42.4638 60.1996 42.4183C57.2412 39.8028 55.9579 35.964 54.4906 32.359C53.2341 36.0857 51.7331 39.829 48.7382 42.4879L48.7385 42.4876ZM43.6198 51.155C45.6263 54.1477 49.385 55.0563 51.0678 54.8647C48.5675 51.7779 45.8565 48.7272 42.3985 46.8128C42.296 47.9975 42.5462 48.8738 43.6198 51.155ZM68.6869 50.1314C68.6406 50.1137 68.5942 50.0958 68.5479 50.0781C63.8224 60.8048 56.7269 56.7351 54.4332 64.5019C51.1035 56.3645 44.1491 60.1383 40.253 50.0866C40.1887 50.1116 40.1247 50.1368 40.0604 50.162C43.3315 62.5869 52.3928 55.819 54.3161 68.5789C54.3675 68.5805 54.4187 68.5822 54.4701 68.5836C54.5072 68.1882 54.544 67.7926 54.5811 67.3975C56.3805 56.3641 65.316 62.5211 68.6871 50.1311L68.6869 50.1314Z" fill="#E6E6FF"/>
<g clip-path="url(#clip1_20889_321738)">
<rect x="17.7622" y="11.8867" width="70.7801" height="70.7801" rx="11.3078" fill="url(#paint1_linear_20889_321738)"/>
<path fill-rule="evenodd" clip-rule="evenodd" d="M45.4726 68.3629C43.7849 65.3845 41.5123 62.9427 38.777 60.7461C41.8893 61.1878 45.699 65.5221 45.4726 68.3629ZM41.9893 27.3892L39.572 33.4448C41.5443 32.4835 42.6758 29.262 41.9893 27.3892ZM54.8493 78.0782C54.8363 78.1059 54.8232 78.1336 54.81 78.1613C54.8022 78.1336 54.7945 78.1059 54.7867 78.0782H54.8493ZM54.1929 76.0129V66.9365C52.8003 61.5981 49.9574 60.1806 46.9935 58.7027C43.7752 57.098 40.4142 55.4221 38.6124 48.5781L38.658 48.5603C38.7151 48.5378 38.7722 48.5154 38.8295 48.4931C41.1477 54.474 44.4268 56.1109 47.558 57.6739C50.0495 58.9176 52.4473 60.1146 54.1929 63.416V33.9933C52.743 36.4333 51.0508 38.6775 48.5072 40.086C48.4803 40.0499 48.4533 40.014 48.4262 39.9781C48.4144 39.9623 48.4025 39.9466 48.3907 39.9309C51.2452 37.3965 52.8952 33.9877 54.1929 30.4556V18.7479C54.0959 19.08 53.9983 19.4155 53.9 19.7537C51.8805 26.7026 49.5219 34.8179 43.5054 38.183C43.5772 38.1415 43.6111 38.0709 43.6453 37.9999C43.6604 37.9685 43.6755 37.937 43.694 37.9079C43.6937 37.9082 43.6935 37.9086 43.6933 37.909C43.6949 37.9068 43.6962 37.9046 43.6975 37.9024M43.698 37.9017C43.6966 37.9037 43.6953 37.9058 43.694 37.9079C46.1793 33.6632 47.5827 28.0186 44.6436 23.5325C43.8823 28.7445 42.7352 33.651 38.9899 37.255C37.5173 39.6025 37.1333 42.4497 38.2427 45.0206C38.2271 45.4082 37.8571 44.9651 37.7587 44.844C35.6409 41.283 34.742 36.9051 37.0772 33.1909C30.7243 37.8724 31.3605 47.9061 35.5736 53.8533C36.9395 55.8163 38.8688 57.449 40.7938 59.078C44.4433 62.1665 48.0773 65.2418 47.8273 70.5293C49.067 69.1904 49.5541 67.5291 49.4269 65.7997C49.5382 66.0658 49.9757 66.9427 50.0809 67.0861C50.3804 68.3205 50.4681 69.6235 50.5556 70.9215C50.6115 71.7514 50.6672 72.5792 50.778 73.3857C50.8482 73.2823 50.9201 73.1787 50.9925 73.0744C51.5835 72.2232 52.2059 71.3268 52.1201 70.104C52.1456 69.7161 52.2105 68.7861 52.2406 68.7821C52.2702 68.7784 52.6007 69.7342 52.7131 70.1425C53.0674 72.1098 53.6281 74.068 54.1929 76.0129M43.7016 37.8963C43.7004 37.8981 43.6992 37.8999 43.698 37.9017C43.6991 37.8998 43.7003 37.898 43.7016 37.8963ZM54.8558 16.5359C54.8634 16.5116 54.8709 16.4872 54.8785 16.4629C54.8857 16.4872 54.893 16.5116 54.9002 16.5359H54.8558ZM51.0154 53.877C49.1192 54.0929 44.884 53.0692 42.6231 49.697C41.4134 47.1267 41.1314 46.1392 41.247 44.8044C45.1434 46.9614 48.198 50.3989 51.0154 53.877Z" fill="url(#paint2_linear_20889_321738)"/>
<path d="M67.861 39.8155L53.8846 39.9059C53.4777 39.9059 53.8851 39.5177 53.8851 39.1538C53.8851 38.7899 53.4781 38.4921 53.8851 38.4921H67.5354L71.0794 35.0313C71.3531 34.76 71.8192 34.7468 72.1225 34.9916C72.4259 35.2364 72.4407 35.6599 72.1669 35.9246L68.4011 39.6038C68.2679 39.7361 68.0681 39.8155 67.861 39.8155Z" fill="url(#paint3_linear_20889_321738)"/>
<path d="M71.771 32.1182C72.769 32.1182 73.5737 32.9195 73.5737 33.9014C73.5736 34.8831 72.7689 35.6836 71.771 35.6836C70.7731 35.6835 69.9684 34.8831 69.9683 33.9014C69.9683 32.9195 70.773 32.1183 71.771 32.1182Z" fill="url(#paint4_linear_20889_321738)" stroke="url(#paint5_linear_20889_321738)" stroke-width="0.56539"/>
<path d="M67.861 56.4026L53.8846 56.3022C53.4777 56.3022 53.8851 56.7334 53.8851 57.1378C53.8851 57.5422 53.4781 57.8731 53.8851 57.8731H67.5354L71.0794 61.7184C71.3531 62.0198 71.8192 62.0345 72.1225 61.7625C72.4259 61.4904 72.4407 61.0199 72.1669 60.7258L68.4011 56.6379C68.2679 56.4908 68.0681 56.4026 67.861 56.4026Z" fill="url(#paint6_linear_20889_321738)"/>
<ellipse cx="2.08513" cy="2.06517" rx="2.08513" ry="2.06517" transform="matrix(1 0 0 -1 69.8672 64.4326)" fill="url(#paint7_linear_20889_321738)"/>
<path d="M70.5556 44.9931H53.8688C53.4974 44.9931 53.8693 44.7387 53.8693 44.4277C53.8693 44.1167 53.4974 43.8623 53.8688 43.8623H70.5556C70.927 43.8623 71.2309 44.1167 71.2309 44.4277C71.2309 44.7387 70.927 44.9931 70.5556 44.9931Z" fill="url(#paint8_linear_20889_321738)"/>
<path d="M72.1689 42.626C73.167 42.626 73.9717 43.4273 73.9717 44.4092C73.9715 45.3909 73.1669 46.1914 72.1689 46.1914C71.1711 46.1913 70.3664 45.3909 70.3662 44.4092C70.3662 43.4274 71.171 42.6261 72.1689 42.626Z" fill="url(#paint9_linear_20889_321738)" stroke="url(#paint10_linear_20889_321738)" stroke-width="0.56539"/>
<path d="M70.012 51.7792H53.8635C53.504 51.7792 53.864 51.3975 53.864 50.9311C53.864 50.4646 53.504 50.083 53.8635 50.083H70.012C70.3714 50.083 70.6656 50.4646 70.6656 50.9311C70.6656 51.3975 70.3714 51.7792 70.012 51.7792Z" fill="url(#paint11_linear_20889_321738)"/>
<path d="M72.0117 49.2441C73.0097 49.2441 73.8145 50.0455 73.8145 51.0273C73.8143 52.0091 73.0097 52.8096 72.0117 52.8096C71.0139 52.8095 70.2091 52.0091 70.209 51.0273C70.209 50.0455 71.0138 49.2442 72.0117 49.2441Z" fill="url(#paint12_linear_20889_321738)" stroke="url(#paint13_linear_20889_321738)" stroke-width="0.56539"/>
<path d="M71.7583 60.2803C72.7563 60.2803 73.561 61.0816 73.561 62.0635C73.5609 63.0452 72.7562 63.8457 71.7583 63.8457C70.7604 63.8456 69.9557 63.0452 69.9556 62.0635C69.9556 61.0817 70.7604 60.2804 71.7583 60.2803Z" fill="url(#paint14_linear_20889_321738)" stroke="url(#paint15_linear_20889_321738)" stroke-width="0.56539"/>
</g>
</g>
<path d="M118.953 65.1559C116.829 65.1559 114.91 64.7926 113.196 64.0662C111.497 63.326 110.092 62.2774 108.981 60.9204C107.885 59.5497 107.172 57.9254 106.843 56.0476L111.325 55.3691C111.778 57.1784 112.723 58.5902 114.163 59.6045C115.602 60.6052 117.281 61.1055 119.2 61.1055C120.393 61.1055 121.489 60.9204 122.49 60.5503C123.49 60.1665 124.292 59.6251 124.895 58.9261C125.512 58.2133 125.821 57.3635 125.821 56.3766C125.821 55.842 125.725 55.3691 125.533 54.9579C125.354 54.5467 125.101 54.1903 124.772 53.8887C124.457 53.5735 124.066 53.3062 123.6 53.0869C123.148 52.8539 122.647 52.6551 122.099 52.4906L114.512 50.2495C113.772 50.0302 113.018 49.7492 112.251 49.4066C111.483 49.0502 110.777 48.591 110.133 48.029C109.502 47.4533 108.988 46.7474 108.591 45.9113C108.193 45.0614 107.995 44.0334 107.995 42.8272C107.995 41.0042 108.461 39.4621 109.393 38.2011C110.338 36.9263 111.613 35.9669 113.217 35.3226C114.821 34.6647 116.616 34.3357 118.604 34.3357C120.605 34.3631 122.394 34.7195 123.97 35.4049C125.56 36.0902 126.876 37.0771 127.918 38.3656C128.973 39.6403 129.7 41.1892 130.097 43.0122L125.492 43.7935C125.286 42.6833 124.847 41.7306 124.176 40.9356C123.504 40.1269 122.682 39.5101 121.708 39.0852C120.735 38.6466 119.68 38.4204 118.542 38.4067C117.446 38.3793 116.438 38.5438 115.52 38.9002C114.615 39.2565 113.889 39.7568 113.34 40.4011C112.806 41.0453 112.538 41.7855 112.538 42.6216C112.538 43.444 112.778 44.1088 113.258 44.616C113.738 45.1231 114.327 45.5275 115.026 45.829C115.739 46.1169 116.445 46.3568 117.144 46.5486L122.613 48.0907C123.298 48.2826 124.073 48.543 124.936 48.872C125.814 49.1872 126.657 49.6327 127.465 50.2084C128.288 50.7841 128.966 51.5517 129.501 52.5112C130.035 53.457 130.303 54.6495 130.303 56.0887C130.303 57.5828 130.001 58.8986 129.398 60.0363C128.795 61.1603 127.966 62.1061 126.91 62.8737C125.868 63.6275 124.662 64.1964 123.292 64.5802C121.921 64.964 120.475 65.1559 118.953 65.1559ZM145.108 65.1559C142.984 65.1559 141.202 64.6419 139.763 63.6138C138.324 62.5721 137.234 61.1671 136.494 59.3989C135.753 57.6307 135.383 55.6364 135.383 53.4158C135.383 51.1953 135.747 49.201 136.473 47.4328C137.213 45.6646 138.296 44.2733 139.722 43.259C141.161 42.231 142.929 41.7169 145.026 41.7169C147.11 41.7169 148.905 42.231 150.413 43.259C151.935 44.2733 153.107 45.6646 153.929 47.4328C154.751 49.1872 155.163 51.1816 155.163 53.4158C155.163 55.6364 154.751 57.6376 153.929 59.4195C153.12 61.1877 151.962 62.5858 150.454 63.6138C148.96 64.6419 147.178 65.1559 145.108 65.1559ZM134.664 74.4081V42.3338H138.488V58.3092H138.981V74.4081H134.664ZM144.512 61.2699C145.883 61.2699 147.014 60.9204 147.905 60.2214C148.809 59.5223 149.481 58.5834 149.92 57.4046C150.372 56.2121 150.598 54.8825 150.598 53.4158C150.598 51.9629 150.372 50.647 149.92 49.4682C149.481 48.2894 148.803 47.3505 147.884 46.6515C146.966 45.9524 145.794 45.6029 144.368 45.6029C143.025 45.6029 141.915 45.9318 141.038 46.5898C140.174 47.2477 139.53 48.1661 139.105 49.3449C138.694 50.5237 138.488 51.8807 138.488 53.4158C138.488 54.951 138.694 56.308 139.105 57.4868C139.516 58.6656 140.167 59.5908 141.058 60.2625C141.949 60.9341 143.1 61.2699 144.512 61.2699ZM169.551 65.1559C167.344 65.1559 165.404 64.6761 163.732 63.7166C162.074 62.7434 160.778 61.3933 159.846 59.6662C158.928 57.9254 158.469 55.9105 158.469 53.6215C158.469 51.1953 158.921 49.0913 159.826 47.3094C160.744 45.5275 162.019 44.1499 163.65 43.1767C165.281 42.2035 167.179 41.7169 169.345 41.7169C171.607 41.7169 173.533 42.2447 175.123 43.3001C176.713 44.3418 177.898 45.829 178.68 47.7617C179.475 49.6944 179.79 51.9903 179.625 54.6495H175.328V53.0869C175.301 50.51 174.807 48.6047 173.848 47.3711C172.902 46.1374 171.456 45.5206 169.51 45.5206C167.358 45.5206 165.74 46.1991 164.657 47.5561C163.574 48.9131 163.033 50.8732 163.033 53.4364C163.033 55.8763 163.574 57.7678 164.657 59.1111C165.74 60.4407 167.303 61.1055 169.345 61.1055C170.688 61.1055 171.847 60.8039 172.82 60.2008C173.807 59.584 174.574 58.7067 175.123 57.5691L179.337 58.9055C178.474 60.893 177.165 62.435 175.41 63.5316C173.656 64.6145 171.703 65.1559 169.551 65.1559ZM161.635 54.6495V51.2981H177.487V54.6495H161.635ZM193.737 65.1559C191.462 65.1559 189.529 64.6487 187.939 63.6344C186.349 62.6201 185.129 61.2288 184.279 59.4606C183.443 57.6924 183.018 55.6844 183.005 53.4364C183.018 51.1473 183.457 49.1256 184.321 47.3711C185.184 45.6029 186.418 44.2185 188.021 43.2179C189.625 42.2172 191.551 41.7169 193.799 41.7169C196.225 41.7169 198.295 42.32 200.008 43.5263C201.735 44.7325 202.873 46.3842 203.421 48.4813L199.145 49.715C198.72 48.4676 198.021 47.5013 197.047 46.8159C196.088 46.1169 194.985 45.7674 193.737 45.7674C192.325 45.7674 191.167 46.1032 190.262 46.7748C189.358 47.4328 188.686 48.3374 188.248 49.4888C187.809 50.6402 187.583 51.9561 187.569 53.4364C187.583 55.7255 188.104 57.5759 189.132 58.9877C190.173 60.3996 191.709 61.1055 193.737 61.1055C195.122 61.1055 196.239 60.7902 197.089 60.1597C197.952 59.5155 198.61 58.5971 199.062 57.4046L203.421 58.4326C202.695 60.5983 201.495 62.2637 199.823 63.4288C198.151 64.5802 196.122 65.1559 193.737 65.1559ZM220.316 64.5391C218.918 64.8132 217.547 64.9297 216.204 64.8886C214.861 64.8475 213.661 64.587 212.606 64.1073C211.551 63.6275 210.755 62.8737 210.221 61.8456C209.741 60.9273 209.481 59.9952 209.44 59.0494C209.412 58.0899 209.399 57.0071 209.399 55.8009V36.1656H213.716V55.5953C213.716 56.4862 213.723 57.2607 213.737 57.9186C213.764 58.5765 213.908 59.1317 214.169 59.584C214.662 60.4338 215.443 60.9204 216.512 61.0438C217.595 61.1534 218.863 61.1055 220.316 60.8999V64.5391ZM205.142 45.7879V42.3338H220.316V45.7879H205.142ZM224.998 64.5391V42.3338H228.822V47.7206L228.287 47.0215C228.562 46.3088 228.918 45.6577 229.357 45.0683C229.795 44.4652 230.302 43.9717 230.878 43.5879C231.44 43.1767 232.064 42.8615 232.749 42.6422C233.448 42.4091 234.161 42.2721 234.887 42.231C235.614 42.1761 236.313 42.2104 236.985 42.3338V46.3636C236.258 46.1717 235.449 46.1169 234.558 46.1991C233.681 46.2814 232.872 46.5624 232.132 47.0421C231.433 47.4944 230.878 48.0427 230.467 48.6869C230.069 49.3312 229.782 50.0508 229.603 50.8458C229.425 51.6271 229.336 52.4564 229.336 53.3336V64.5391H224.998ZM250.347 65.1559C248.14 65.1559 246.201 64.6761 244.528 63.7166C242.87 62.7434 241.574 61.3933 240.642 59.6662C239.724 57.9254 239.265 55.9105 239.265 53.6215C239.265 51.1953 239.717 49.0913 240.622 47.3094C241.54 45.5275 242.815 44.1499 244.446 43.1767C246.077 42.2035 247.976 41.7169 250.141 41.7169C252.403 41.7169 254.329 42.2447 255.919 43.3001C257.509 44.3418 258.694 45.829 259.476 47.7617C260.271 49.6944 260.586 51.9903 260.422 54.6495H256.124V53.0869C256.097 50.51 255.604 48.6047 254.644 47.3711C253.698 46.1374 252.252 45.5206 250.306 45.5206C248.154 45.5206 246.536 46.1991 245.454 47.5561C244.371 48.9131 243.829 50.8732 243.829 53.4364C243.829 55.8763 244.371 57.7678 245.454 59.1111C246.536 60.4407 248.099 61.1055 250.141 61.1055C251.485 61.1055 252.643 60.8039 253.616 60.2008C254.603 59.584 255.371 58.7067 255.919 57.5691L260.134 58.9055C259.27 60.893 257.961 62.435 256.207 63.5316C254.452 64.6145 252.499 65.1559 250.347 65.1559ZM242.431 54.6495V51.2981H258.283V54.6495H242.431ZM271.211 64.5391L280.833 34.932H287.022L296.644 64.5391H292.182L283.321 37.5226H284.431L275.672 64.5391H271.211ZM276.207 57.8569V53.8271H291.668V57.8569H276.207ZM300.744 64.5391V34.932H305.041V64.5391H300.744Z" fill="url(#paint16_linear_20889_321738)"/>
<defs>
<linearGradient id="paint0_linear_20889_321738" x1="54.4872" y1="12.2773" x2="146.241" y2="214.417" gradientUnits="userSpaceOnUse">
<stop offset="0.0964909" stop-color="#25232E"/>
<stop offset="1" stop-color="#DCDCFF"/>
</linearGradient>
<linearGradient id="paint1_linear_20889_321738" x1="53.1523" y1="11.8867" x2="141.485" y2="206.489" gradientUnits="userSpaceOnUse">
<stop offset="0.0964909" stop-color="#25232E"/>
<stop offset="1" stop-color="#DCDCFF"/>
</linearGradient>
<linearGradient id="paint2_linear_20889_321738" x1="16.4174" y1="59.2186" x2="31.1711" y2="69.292" gradientUnits="userSpaceOnUse">
<stop stop-color="#49485A"/>
<stop offset="1" stop-color="#E5E5FF"/>
</linearGradient>
<linearGradient id="paint3_linear_20889_321738" x1="53.888" y1="37.3164" x2="76.8799" y2="31.8477" gradientUnits="userSpaceOnUse">
<stop stop-color="#E6E6FF"/>
<stop offset="1" stop-color="#49485A"/>
</linearGradient>
<linearGradient id="paint4_linear_20889_321738" x1="70.7394" y1="35.7264" x2="75.3569" y2="33.5833" gradientUnits="userSpaceOnUse">
<stop stop-color="#757488"/>
<stop offset="1" stop-color="#2B2935"/>
</linearGradient>
<linearGradient id="paint5_linear_20889_321738" x1="71.7712" y1="31.8359" x2="71.7712" y2="35.9663" gradientUnits="userSpaceOnUse">
<stop stop-color="#8C8CA1"/>
<stop offset="1" stop-color="#E4E4FF"/>
</linearGradient>
<linearGradient id="paint6_linear_20889_321738" x1="53.888" y1="59.1793" x2="77.1162" y2="64.1517" gradientUnits="userSpaceOnUse">
<stop stop-color="#E6E6FF"/>
<stop offset="1" stop-color="#49485A"/>
</linearGradient>
<linearGradient id="paint7_linear_20889_321738" x1="1.05336" y1="3.89049" x2="5.6709" y2="1.74739" gradientUnits="userSpaceOnUse">
<stop stop-color="#757488"/>
<stop offset="1" stop-color="#2B2935"/>
</linearGradient>
<linearGradient id="paint8_linear_20889_321738" x1="53.8768" y1="44.4177" x2="65.2247" y2="33.0076" gradientUnits="userSpaceOnUse">
<stop stop-color="#E6E6FF"/>
<stop offset="1" stop-color="#49485A"/>
</linearGradient>
<linearGradient id="paint9_linear_20889_321738" x1="71.1373" y1="46.2342" x2="75.7549" y2="44.0911" gradientUnits="userSpaceOnUse">
<stop stop-color="#757488"/>
<stop offset="1" stop-color="#2B2935"/>
</linearGradient>
<linearGradient id="paint10_linear_20889_321738" x1="72.1691" y1="42.3438" x2="72.1691" y2="46.4741" gradientUnits="userSpaceOnUse">
<stop stop-color="#8C8CA1"/>
<stop offset="1" stop-color="#E4E4FF"/>
</linearGradient>
<linearGradient id="paint11_linear_20889_321738" x1="53.8712" y1="50.916" x2="69.4147" y2="40.8331" gradientUnits="userSpaceOnUse">
<stop stop-color="#E6E6FF"/>
<stop offset="1" stop-color="#49485A"/>
</linearGradient>
<linearGradient id="paint12_linear_20889_321738" x1="70.9801" y1="52.8524" x2="75.5977" y2="50.7093" gradientUnits="userSpaceOnUse">
<stop stop-color="#757488"/>
<stop offset="1" stop-color="#2B2935"/>
</linearGradient>
<linearGradient id="paint13_linear_20889_321738" x1="72.0119" y1="48.9619" x2="72.0119" y2="53.0923" gradientUnits="userSpaceOnUse">
<stop stop-color="#8C8CA1"/>
<stop offset="1" stop-color="#E4E4FF"/>
</linearGradient>
<linearGradient id="paint14_linear_20889_321738" x1="70.7267" y1="63.8885" x2="75.3442" y2="61.7454" gradientUnits="userSpaceOnUse">
<stop stop-color="#757488"/>
<stop offset="1" stop-color="#2B2935"/>
</linearGradient>
<linearGradient id="paint15_linear_20889_321738" x1="71.7585" y1="59.998" x2="71.7585" y2="64.1284" gradientUnits="userSpaceOnUse">
<stop stop-color="#8C8CA1"/>
<stop offset="1" stop-color="#E4E4FF"/>
</linearGradient>
<linearGradient id="paint16_linear_20889_321738" x1="116.145" y1="27.3836" x2="103.837" y2="125.218" gradientUnits="userSpaceOnUse">
<stop offset="0.0964909" stop-color="white"/>
<stop offset="0.474498" stop-color="#65657C"/>
<stop offset="1" stop-color="#25232E"/>
</linearGradient>
<clipPath id="clip0_20889_321738">
<rect width="79.9148" height="79.9148" fill="white" transform="translate(14.53 9.08105)"/>
</clipPath>
<clipPath id="clip1_20889_321738">
<rect width="76.9349" height="76.9349" fill="white" transform="translate(14.6821 8.80957)"/>
</clipPath>
</defs>
</svg>
