<svg width="60" height="61" viewBox="0 0 60 61" fill="none" xmlns="http://www.w3.org/2000/svg">
<rect y="0.77832" width="60" height="60" rx="30" fill="#090A0B"/>
<rect x="1.5" y="2.27832" width="57" height="57" rx="28.5" stroke="#3A3A44" stroke-opacity="0.4" stroke-width="3"/>
<path fill-rule="evenodd" clip-rule="evenodd" d="M41.4685 25.6894C43.3581 27.9552 44.5835 30.7361 44.9998 33.7031H40.5377C40.1869 31.953 39.4361 30.3164 38.3486 28.9314L41.4685 25.6894ZM32.0323 35.1113C32.2281 35.6002 32.2545 36.1445 32.1073 36.6513C31.96 37.1582 31.648 37.5963 31.2246 37.8908C30.8012 38.1853 30.2926 38.3181 29.7856 38.2664C29.2785 38.2147 28.8044 37.9818 28.4441 37.6075C28.0839 37.2331 27.8597 36.7404 27.81 36.2134C27.7603 35.6865 27.888 35.1579 28.1714 34.7179C28.4547 34.2778 28.8762 33.9536 29.364 33.8005C29.8517 33.6474 30.3754 33.6749 30.8458 33.8783L36.0563 29.6963L32.0323 35.1113ZM31.1004 20.2773V24.863C33.1878 25.0832 35.167 25.9355 36.7924 27.3143L39.9123 24.0719C37.447 21.8503 34.3551 20.5189 31.1004 20.2773ZM28.8998 24.8627V20.2779C25.6451 20.5196 22.5534 21.8508 20.088 24.072L23.2076 27.314C24.833 25.9353 26.8124 25.0829 28.8998 24.8627ZM21.6514 28.9314C20.5639 30.3165 19.8131 31.9531 19.4623 33.7031H14.9998C15.416 30.7359 16.6416 27.9549 18.5316 25.6892L21.6514 28.9314Z" fill="url(#paint0_linear_20889_321797)"/>
<defs>
<linearGradient id="paint0_linear_20889_321797" x1="29.9998" y1="20.2773" x2="29.2068" y2="42.5113" gradientUnits="userSpaceOnUse">
<stop stop-color="white"/>
<stop offset="1" stop-color="#999999"/>
</linearGradient>
</defs>
</svg>
