<svg width="13" height="15" viewBox="0 0 13 15" fill="none" xmlns="http://www.w3.org/2000/svg">
<path d="M6.07965 11.4212L7.16735 5.89405L10.6884 3.52882L10.2604 5.70841C10.1714 6.16191 10.467 6.60204 10.9224 6.69385C11.3759 6.7829 11.816 6.48725 11.9078 6.03189L12.7247 1.85968C12.8137 1.40618 12.518 0.966048 12.0645 0.877L7.89048 0.0573971C7.43698 -0.0316507 6.99685 0.264003 6.9078 0.717505C6.81875 1.17101 7.11441 1.61114 7.56791 1.70018L9.76138 2.13088L5.94139 4.69694C5.75592 4.82152 5.62711 5.0125 5.58626 5.23276L4.50319 10.7608L1.01538 13.1038C0.630608 13.3622 0.530698 13.8833 0.787304 14.2653C1.04391 14.6473 1.56682 14.75 1.94882 14.4934L5.72452 11.9571C5.90999 11.8325 6.03694 11.6387 6.07965 11.4212Z" fill="#4ADF88"/>
</svg>
